<svg width="180" height="67" viewBox="0 0 180 67" fill="none" xmlns="http://www.w3.org/2000/svg">
<path fill-rule="evenodd" clip-rule="evenodd" d="M14.9061 32.0677C14.9061 35.747 17.8188 38.7396 21.3983 38.7396C24.9782 38.7396 27.8906 35.747 27.8906 32.0677C27.8906 28.3883 24.9782 25.395 21.3983 25.395C17.8188 25.395 14.9061 28.3883 14.9061 32.0677ZM21.3983 20.3533C23.8096 20.3533 26.0466 21.1288 27.8906 22.4469V10H32.797V43.6709H27.8906V41.6881C26.0466 43.0061 23.8096 43.7816 21.3983 43.7816C15.1132 43.7816 10 38.5268 10 32.0677C10 25.6082 15.1132 20.3533 21.3983 20.3533ZM47.4025 38.7397C43.823 38.7397 40.9103 35.747 40.9103 32.0677C40.9103 28.3884 43.823 25.395 47.4025 25.395C50.982 25.395 53.8947 28.3884 53.8947 32.0677C53.8947 35.747 50.982 38.7397 47.4025 38.7397ZM47.4025 20.3534C41.1174 20.3534 36.0042 25.6082 36.0042 32.0677C36.0042 38.5268 41.1174 43.7817 47.4025 43.7817C53.6876 43.7817 58.8011 38.5268 58.8011 32.0677C58.8011 25.6082 53.6876 20.3534 47.4025 20.3534ZM126.503 38.7397C122.924 38.7397 120.011 35.747 120.011 32.0677C120.011 28.3884 122.924 25.395 126.503 25.395C130.083 25.395 132.995 28.3884 132.995 32.0677C132.995 35.747 130.083 38.7397 126.503 38.7397ZM126.503 20.3534C120.218 20.3534 115.105 25.6082 115.105 32.0677C115.105 38.5268 120.218 43.7817 126.503 43.7817C132.788 43.7817 137.902 38.5268 137.902 32.0677C137.902 25.6082 132.788 20.3534 126.503 20.3534ZM79.8986 32.0677C79.8986 35.747 76.9862 38.7397 73.406 38.7397C69.8259 38.7397 66.9138 35.747 66.9138 32.0677C66.9138 28.3884 69.8259 25.3951 73.406 25.3951C76.9862 25.3951 79.8986 28.3884 79.8986 32.0677ZM62.0077 32.0677C62.0077 38.5269 67.1206 43.7817 73.406 43.7817C79.6911 43.7817 84.805 38.5269 84.805 32.0677C84.805 29.5897 84.0501 27.2904 82.7672 25.3951H84.8064V20.3531H73.406C67.1206 20.3531 62.0077 25.6083 62.0077 32.0677ZM73.4029 51.0069C69.8227 51.0069 66.9106 48.0139 66.9106 44.3349H62.0042C62.0042 50.7944 67.1174 56.0492 73.4029 56.0492C79.688 56.0492 84.8019 50.7944 84.8019 44.3349H79.8954C79.8954 48.0139 76.983 51.0069 73.4029 51.0069ZM100.199 38.7396C96.6199 38.7396 93.7072 35.747 93.7072 32.0677C93.7072 28.3883 96.6199 25.395 100.199 25.395C103.779 25.395 106.692 28.3883 106.692 32.0677C106.692 35.747 103.779 38.7396 100.199 38.7396ZM106.692 22.4469C104.848 21.1288 102.611 20.3533 100.199 20.3533C93.9143 20.3533 88.8011 25.6082 88.8011 32.0677C88.8011 38.5268 93.9143 43.7816 100.199 43.7816C102.611 43.7816 104.848 43.0061 106.692 41.6881V43.6709H111.598V10H106.692V22.4469ZM155.772 22.8593C157.282 21.3117 159.363 20.3533 161.659 20.3533C166.259 20.3533 170 24.1981 170 28.9247V43.7832H165.094V28.9247C165.094 26.9786 163.553 25.3952 161.659 25.3952C159.766 25.3952 158.225 26.9786 158.225 28.9247V43.7832H153.319V28.9247C153.319 26.9786 151.778 25.3952 149.885 25.3952C147.991 25.3952 146.45 26.9786 146.45 28.9247V43.7832H141.544V28.9247C141.544 24.1981 145.285 20.3533 149.885 20.3533C152.18 20.3533 154.262 21.3117 155.772 22.8593Z" fill="white"/>
</svg>
