<svg width="68" height="68" viewBox="0 0 68 68" fill="none" xmlns="http://www.w3.org/2000/svg">
<g filter="url(#filter0_d_1935_1671)">
<g filter="url(#filter1_d_1935_1671)">
<circle cx="34" cy="30" r="30" fill="url(#paint0_linear_1935_1671)"/>
</g>
<path d="M45.6919 22.3281C46.0069 22.6431 45.7838 23.1816 45.3383 23.1816L38.8636 23.1816C38.5875 23.1816 38.3636 22.9578 38.3636 22.6816L38.3636 16.2069C38.3636 15.7615 38.9022 15.5384 39.2172 15.8534L42.4545 19.0907L45.6919 22.3281Z" fill="white" fill-opacity="0.7"/>
<path fill-rule="evenodd" clip-rule="evenodd" d="M25 15H35.876C36.4283 15 36.876 15.4477 36.876 16V23.5455C36.876 24.0977 37.3237 24.5455 37.876 24.5455H45.5455C46.0977 24.5455 46.5455 24.9932 46.5455 25.5455V42C46.5455 43.6569 45.2023 45 43.5455 45H25C23.3431 45 22 43.6569 22 42V18C22 16.3431 23.3431 15 25 15ZM27.4545 30C27.4545 29.2469 28.065 28.6364 28.8182 28.6364H32.9091C33.6622 28.6364 34.2727 29.2469 34.2727 30C34.2727 30.7531 33.6622 31.3636 32.9091 31.3636H28.8182C28.065 31.3636 27.4545 30.7531 27.4545 30ZM28.8182 34.0909C28.065 34.0909 27.4545 34.7014 27.4545 35.4545C27.4545 36.2077 28.065 36.8182 28.8182 36.8182H39.7273C40.4804 36.8182 41.0909 36.2077 41.0909 35.4545C41.0909 34.7014 40.4804 34.0909 39.7272 34.0909H28.8182Z" fill="white"/>
</g>
<defs>
<filter id="filter0_d_1935_1671" x="0" y="0" width="68" height="68" filterUnits="userSpaceOnUse" color-interpolation-filters="sRGB">
<feFlood flood-opacity="0" result="BackgroundImageFix"/>
<feColorMatrix in="SourceAlpha" type="matrix" values="0 0 0 0 0 0 0 0 0 0 0 0 0 0 0 0 0 0 127 0" result="hardAlpha"/>
<feOffset dy="4"/>
<feGaussianBlur stdDeviation="2"/>
<feComposite in2="hardAlpha" operator="out"/>
<feColorMatrix type="matrix" values="0 0 0 0 0 0 0 0 0 0 0 0 0 0 0 0 0 0 0.25 0"/>
<feBlend mode="normal" in2="BackgroundImageFix" result="effect1_dropShadow_1935_1671"/>
<feBlend mode="normal" in="SourceGraphic" in2="effect1_dropShadow_1935_1671" result="shape"/>
</filter>
<filter id="filter1_d_1935_1671" x="0" y="0" width="68" height="68" filterUnits="userSpaceOnUse" color-interpolation-filters="sRGB">
<feFlood flood-opacity="0" result="BackgroundImageFix"/>
<feColorMatrix in="SourceAlpha" type="matrix" values="0 0 0 0 0 0 0 0 0 0 0 0 0 0 0 0 0 0 127 0" result="hardAlpha"/>
<feOffset dy="4"/>
<feGaussianBlur stdDeviation="2"/>
<feComposite in2="hardAlpha" operator="out"/>
<feColorMatrix type="matrix" values="0 0 0 0 0 0 0 0 0 0 0 0 0 0 0 0 0 0 0.25 0"/>
<feBlend mode="normal" in2="BackgroundImageFix" result="effect1_dropShadow_1935_1671"/>
<feBlend mode="normal" in="SourceGraphic" in2="effect1_dropShadow_1935_1671" result="shape"/>
</filter>
<linearGradient id="paint0_linear_1935_1671" x1="34" y1="0" x2="34" y2="60" gradientUnits="userSpaceOnUse">
<stop stop-color="#74F5E9"/>
<stop offset="1" stop-color="#7187F7"/>
</linearGradient>
</defs>
</svg>
