<svg width="375" height="812" viewBox="0 0 375 812" fill="none" xmlns="http://www.w3.org/2000/svg">
<rect width="375" height="812" fill="white"/>
<path fill-rule="evenodd" clip-rule="evenodd" d="M126.972 746.756C126.972 749.711 129.312 752.115 132.187 752.115C135.062 752.115 137.401 749.711 137.401 746.756C137.401 743.801 135.062 741.397 132.187 741.397C129.312 741.397 126.972 743.801 126.972 746.756ZM132.187 737.347C134.123 737.347 135.92 737.97 137.401 739.029V729.032H141.342V756.075H137.401V754.483C135.92 755.542 134.123 756.164 132.187 756.164C127.139 756.164 123.032 751.944 123.032 746.756C123.032 741.568 127.139 737.347 132.187 737.347ZM153.073 752.115C150.198 752.115 147.858 749.711 147.858 746.756C147.858 743.801 150.198 741.397 153.073 741.397C155.948 741.397 158.287 743.801 158.287 746.756C158.287 749.711 155.948 752.115 153.073 752.115ZM153.073 737.347C148.025 737.347 143.918 741.568 143.918 746.756C143.918 751.944 148.025 756.164 153.073 756.164C158.121 756.164 162.228 751.944 162.228 746.756C162.228 741.568 158.121 737.347 153.073 737.347ZM216.604 752.115C213.729 752.115 211.39 749.711 211.39 746.756C211.39 743.801 213.729 741.397 216.604 741.397C219.48 741.397 221.819 743.801 221.819 746.756C221.819 749.711 219.48 752.115 216.604 752.115ZM216.604 737.347C211.556 737.347 207.45 741.568 207.45 746.756C207.45 751.944 211.556 756.164 216.604 756.164C221.653 756.164 225.76 751.944 225.76 746.756C225.76 741.568 221.653 737.347 216.604 737.347ZM179.173 746.756C179.173 749.711 176.834 752.115 173.958 752.115C171.083 752.115 168.744 749.711 168.744 746.756C168.744 743.801 171.083 741.397 173.958 741.397C176.834 741.397 179.173 743.801 179.173 746.756ZM164.803 746.756C164.803 751.944 168.91 756.165 173.958 756.165C179.006 756.165 183.113 751.944 183.113 746.756C183.113 744.766 182.507 742.919 181.477 741.397H183.115V737.347H173.958C168.91 737.347 164.803 741.568 164.803 746.756ZM173.956 761.968C171.08 761.968 168.741 759.564 168.741 756.609H164.8C164.8 761.797 168.907 766.018 173.956 766.018C179.004 766.018 183.111 761.797 183.111 756.609H179.17C179.17 759.564 176.831 761.968 173.956 761.968ZM195.478 752.115C192.603 752.115 190.264 749.711 190.264 746.756C190.264 743.801 192.603 741.397 195.478 741.397C198.353 741.397 200.692 743.801 200.692 746.756C200.692 749.711 198.353 752.115 195.478 752.115ZM200.692 739.029C199.211 737.97 197.415 737.347 195.478 737.347C190.43 737.347 186.323 741.568 186.323 746.756C186.323 751.944 190.43 756.164 195.478 756.164C197.415 756.164 199.211 755.542 200.692 754.483V756.076H204.633V729.032H200.692V739.029ZM240.112 739.36C241.325 738.117 242.997 737.347 244.841 737.347C248.535 737.347 251.54 740.435 251.54 744.232V756.166H247.6V744.232C247.6 742.669 246.362 741.397 244.841 741.397C243.32 741.397 242.083 742.669 242.083 744.232V756.166H238.142V744.232C238.142 742.669 236.905 741.397 235.384 741.397C233.863 741.397 232.625 742.669 232.625 744.232V756.166H228.685V744.232C228.685 740.435 231.69 737.347 235.384 737.347C237.228 737.347 238.9 738.117 240.112 739.36Z" fill="#FA6650"/>
</svg>
